<svg width="25" height="25" viewBox="0 0 25 25" stroke="#A3A3A3" xmlns="http://www.w3.org/2000/svg">
<g clip-path="url(#clip0_38_2152)" fill="none"  >
<path d="M12.3914 15.5C14.0482 15.5 15.3914 14.1569 15.3914 12.5C15.3914 10.8431 14.0482 9.5 12.3914 9.5C10.7345 9.5 9.39136 10.8431 9.39136 12.5C9.39136 14.1569 10.7345 15.5 12.3914 15.5Z"  stroke-width="2" stroke-linecap="round" stroke-linejoin="round"/>
<path d="M19.7914 15.5C19.6582 15.8016 19.6185 16.1362 19.6774 16.4606C19.7362 16.785 19.8908 17.0843 20.1214 17.32L20.1814 17.38C20.3673 17.5657 20.5148 17.7863 20.6155 18.0291C20.7161 18.2719 20.7679 18.5322 20.7679 18.795C20.7679 19.0578 20.7161 19.3181 20.6155 19.5609C20.5148 19.8037 20.3673 20.0243 20.1814 20.21C19.9956 20.396 19.775 20.5435 19.5322 20.6441C19.2894 20.7448 19.0292 20.7966 18.7664 20.7966C18.5035 20.7966 18.2433 20.7448 18.0005 20.6441C17.7577 20.5435 17.5371 20.396 17.3514 20.21L17.2914 20.15C17.0557 19.9195 16.7563 19.7648 16.4319 19.706C16.1076 19.6472 15.773 19.6869 15.4714 19.82C15.1756 19.9468 14.9233 20.1572 14.7457 20.4255C14.568 20.6938 14.4726 21.0082 14.4714 21.33V21.5C14.4714 22.0304 14.2606 22.5391 13.8856 22.9142C13.5105 23.2893 13.0018 23.5 12.4714 23.5C11.9409 23.5 11.4322 23.2893 11.0571 22.9142C10.6821 22.5391 10.4714 22.0304 10.4714 21.5V21.41C10.4636 21.079 10.3565 20.758 10.1639 20.4887C9.97126 20.2194 9.70209 20.0143 9.39136 19.9C9.08974 19.7669 8.75516 19.7272 8.43077 19.786C8.10637 19.8448 7.80704 19.9995 7.57136 20.23L7.51136 20.29C7.32561 20.476 7.10503 20.6235 6.86224 20.7241C6.61944 20.8248 6.35919 20.8766 6.09636 20.8766C5.83353 20.8766 5.57327 20.8248 5.33048 20.7241C5.08768 20.6235 4.8671 20.476 4.68136 20.29C4.4954 20.1043 4.34789 19.8837 4.24724 19.6409C4.14659 19.3981 4.09478 19.1378 4.09478 18.875C4.09478 18.6122 4.14659 18.3519 4.24724 18.1091C4.34789 17.8663 4.4954 17.6457 4.68136 17.46L4.74136 17.4C4.97189 17.1643 5.12654 16.865 5.18536 16.5406C5.24418 16.2162 5.20447 15.8816 5.07136 15.58C4.94459 15.2842 4.73411 15.032 4.46582 14.8543C4.19753 14.6766 3.88314 14.5813 3.56136 14.58H3.39136C2.86092 14.58 2.35222 14.3693 1.97714 13.9942C1.60207 13.6191 1.39136 13.1104 1.39136 12.58C1.39136 12.0496 1.60207 11.5409 1.97714 11.1658C2.35222 10.7907 2.86092 10.58 3.39136 10.58H3.48136C3.81235 10.5723 4.13336 10.4651 4.40266 10.2725C4.67195 10.0799 4.87707 9.81074 4.99136 9.5C5.12447 9.19838 5.16418 8.86381 5.10536 8.53941C5.04654 8.21502 4.89189 7.91568 4.66136 7.68L4.60136 7.62C4.4154 7.43425 4.26789 7.21368 4.16724 6.97088C4.06659 6.72808 4.01478 6.46783 4.01478 6.205C4.01478 5.94217 4.06659 5.68192 4.16724 5.43912C4.26789 5.19632 4.4154 4.97575 4.60136 4.79C4.7871 4.60405 5.00768 4.45653 5.25048 4.35588C5.49327 4.25523 5.75353 4.20343 6.01636 4.20343C6.27919 4.20343 6.53944 4.25523 6.78224 4.35588C7.02503 4.45653 7.24561 4.60405 7.43136 4.79L7.49136 4.85C7.72704 5.08054 8.02637 5.23519 8.35077 5.294C8.67516 5.35282 9.00974 5.31312 9.31136 5.18H9.39136C9.68713 5.05324 9.93937 4.84276 10.1171 4.57447C10.2947 4.30618 10.3901 3.99179 10.3914 3.67V3.5C10.3914 2.96957 10.6021 2.46086 10.9771 2.08579C11.3522 1.71071 11.8609 1.5 12.3914 1.5C12.9218 1.5 13.4305 1.71071 13.8056 2.08579C14.1806 2.46086 14.3914 2.96957 14.3914 3.5V3.59C14.3926 3.91179 14.488 4.22618 14.6657 4.49447C14.8433 4.76276 15.0956 4.97324 15.3914 5.1C15.693 5.23312 16.0276 5.27282 16.3519 5.214C16.6763 5.15519 16.9757 5.00054 17.2114 4.77L17.2714 4.71C17.4571 4.52405 17.6777 4.37653 17.9205 4.27588C18.1633 4.17523 18.4235 4.12343 18.6864 4.12343C18.9492 4.12343 19.2094 4.17523 19.4522 4.27588C19.695 4.37653 19.9156 4.52405 20.1014 4.71C20.2873 4.89575 20.4348 5.11632 20.5355 5.35912C20.6361 5.60192 20.6879 5.86217 20.6879 6.125C20.6879 6.38783 20.6361 6.64808 20.5355 6.89088C20.4348 7.13368 20.2873 7.35425 20.1014 7.54L20.0414 7.6C19.8108 7.83568 19.6562 8.13502 19.5974 8.45941C19.5385 8.78381 19.5782 9.11838 19.7114 9.42V9.5C19.8381 9.79577 20.0486 10.048 20.3169 10.2257C20.5852 10.4034 20.8996 10.4987 21.2214 10.5H21.3914C21.9218 10.5 22.4305 10.7107 22.8056 11.0858C23.1806 11.4609 23.3914 11.9696 23.3914 12.5C23.3914 13.0304 23.1806 13.5391 22.8056 13.9142C22.4305 14.2893 21.9218 14.5 21.3914 14.5H21.3014C20.9796 14.5013 20.6652 14.5966 20.3969 14.7743C20.1286 14.952 19.9181 15.2042 19.7914 15.5V15.5Z"  stroke-width="2" stroke-linecap="round" stroke-linejoin="round"/>
</g>
<defs>
<clipPath id="clip0_38_2152">
<rect width="24" height="24" fill="white" transform="translate(0.391357 0.5)"/>
</clipPath>
</defs>
</svg>
