<svg width="20" height="24" viewBox="0 0 20 24" fill="none" xmlns="http://www.w3.org/2000/svg">
<g id="Bell Icon Alert">
<path id="Vector" d="M16 8.50183C16 6.91053 15.3679 5.38441 14.2426 4.25919C13.1174 3.13397 11.5913 2.50183 10 2.50183C8.4087 2.50183 6.88258 3.13397 5.75736 4.25919C4.63214 5.38441 4 6.91053 4 8.50183C4 15.5018 1 17.5018 1 17.5018H19C19 17.5018 16 15.5018 16 8.50183Z" stroke="#0F172A" stroke-width="2" stroke-linecap="round" stroke-linejoin="round"/>
<path id="Vector_2" d="M11.73 21.5018C11.5542 21.8049 11.3019 22.0565 10.9982 22.2314C10.6946 22.4062 10.3504 22.4983 10 22.4983C9.64964 22.4983 9.30541 22.4062 9.00179 22.2314C8.69818 22.0565 8.44583 21.8049 8.27002 21.5018" stroke="#0F172A" stroke-width="2" stroke-linecap="round" stroke-linejoin="round"/>
<circle id="Ellipse 1" cx="15" cy="5.50183" r="5" fill="#FF643B"/>
</g>
</svg>
